<mxfile host="app.diagrams.net" modified="2021-08-10T16:37:45.807Z" agent="5.0 (Windows NT 10.0; Win64; x64) AppleWebKit/537.36 (KHTML, like Gecko) Chrome/92.0.4515.131 Safari/537.36" etag="-bhoelT3pM94kJdO5cw5" version="14.9.5" type="github">
  <diagram id="zPJUKNE570DLGpzVU4bj" name="Page-1">
    <mxGraphModel dx="854" dy="468" grid="1" gridSize="10" guides="1" tooltips="1" connect="1" arrows="1" fold="1" page="1" pageScale="1" pageWidth="850" pageHeight="1100" math="0" shadow="0">
      <root>
        <mxCell id="0" />
        <mxCell id="1" parent="0" />
        <mxCell id="eA2jIajvq4H5W07gXCKD-1" value="Register" style="html=1;dashed=0;whitespace=wrap;shape=mxgraph.dfd.start;strokeColor=#FF8000;" vertex="1" parent="1">
          <mxGeometry x="160" y="50" width="80" height="30" as="geometry" />
        </mxCell>
        <mxCell id="eA2jIajvq4H5W07gXCKD-2" value="Login" style="html=1;dashed=0;whitespace=wrap;shape=mxgraph.dfd.start;strokeColor=#FF8000;" vertex="1" parent="1">
          <mxGeometry x="160" y="100" width="80" height="30" as="geometry" />
        </mxCell>
        <mxCell id="eA2jIajvq4H5W07gXCKD-3" value="View&amp;nbsp; dashboard" style="html=1;dashed=0;whitespace=wrap;shape=mxgraph.dfd.start;strokeColor=#FF8000;" vertex="1" parent="1">
          <mxGeometry x="160" y="160" width="100" height="30" as="geometry" />
        </mxCell>
        <mxCell id="eA2jIajvq4H5W07gXCKD-4" value="select booking&lt;br&gt;item" style="html=1;dashed=0;whitespace=wrap;shape=mxgraph.dfd.start;strokeColor=#FF8000;" vertex="1" parent="1">
          <mxGeometry x="155" y="220" width="100" height="30" as="geometry" />
        </mxCell>
        <mxCell id="eA2jIajvq4H5W07gXCKD-5" value="pay&lt;span style=&quot;color: rgba(0 , 0 , 0 , 0) ; font-family: monospace ; font-size: 0px&quot;&gt;%3CmxGraphModel%3E%3Croot%3E%3CmxCell%20id%3D%220%22%2F%3E%3CmxCell%20id%3D%221%22%20parent%3D%220%22%2F%3E%3CmxCell%20id%3D%222%22%20value%3D%22%22%20style%3D%22html%3D1%3Bdashed%3D0%3Bwhitespace%3Dwrap%3Bshape%3Dmxgraph.dfd.start%3BstrokeColor%3D%23FF8000%3B%22%20vertex%3D%221%22%20parent%3D%221%22%3E%3CmxGeometry%20x%3D%22160%22%20y%3D%22100%22%20width%3D%2280%22%20height%3D%2230%22%20as%3D%22geometry%22%2F%3E%3C%2FmxCell%3E%3C%2Froot%3E%3C%2FmxGraphModel%3E&lt;/span&gt;" style="html=1;dashed=0;whitespace=wrap;shape=mxgraph.dfd.start;strokeColor=#FF8000;" vertex="1" parent="1">
          <mxGeometry x="170" y="370" width="80" height="30" as="geometry" />
        </mxCell>
        <mxCell id="eA2jIajvq4H5W07gXCKD-6" value="confirm booking" style="rhombus;whiteSpace=wrap;html=1;strokeColor=#FF8000;" vertex="1" parent="1">
          <mxGeometry x="170" y="290" width="80" height="60" as="geometry" />
        </mxCell>
        <mxCell id="eA2jIajvq4H5W07gXCKD-7" value="Customer" style="text;html=1;align=center;verticalAlign=middle;resizable=0;points=[];autosize=1;strokeColor=none;" vertex="1" parent="1">
          <mxGeometry x="175" y="20" width="70" height="20" as="geometry" />
        </mxCell>
        <mxCell id="eA2jIajvq4H5W07gXCKD-8" value="" style="html=1;dashed=0;whitespace=wrap;shape=mxgraph.dfd.start;strokeColor=#FF8000;" vertex="1" parent="1">
          <mxGeometry x="170" y="420" width="80" height="30" as="geometry" />
        </mxCell>
        <mxCell id="eA2jIajvq4H5W07gXCKD-9" value="confirm &lt;br&gt;custommer&lt;br&gt;booking" style="html=1;dashed=0;whitespace=wrap;shape=mxgraph.dfd.start;strokeColor=#FF8000;" vertex="1" parent="1">
          <mxGeometry x="320" y="160" width="100" height="40" as="geometry" />
        </mxCell>
        <mxCell id="eA2jIajvq4H5W07gXCKD-10" value="Login" style="html=1;dashed=0;whitespace=wrap;shape=mxgraph.dfd.start;strokeColor=#FF8000;" vertex="1" parent="1">
          <mxGeometry x="320" y="50" width="80" height="30" as="geometry" />
        </mxCell>
        <mxCell id="eA2jIajvq4H5W07gXCKD-11" value="view &lt;br&gt;dashboard" style="html=1;dashed=0;whitespace=wrap;shape=mxgraph.dfd.start;strokeColor=#FF8000;" vertex="1" parent="1">
          <mxGeometry x="320" y="100" width="80" height="30" as="geometry" />
        </mxCell>
        <mxCell id="eA2jIajvq4H5W07gXCKD-12" value="view booking&amp;nbsp;&lt;br&gt;list" style="html=1;dashed=0;whitespace=wrap;shape=mxgraph.dfd.start;strokeColor=#FF8000;" vertex="1" parent="1">
          <mxGeometry x="320" y="220" width="80" height="30" as="geometry" />
        </mxCell>
        <mxCell id="eA2jIajvq4H5W07gXCKD-13" value="update&lt;br&gt;information" style="html=1;dashed=0;whitespace=wrap;shape=mxgraph.dfd.start;strokeColor=#FF8000;" vertex="1" parent="1">
          <mxGeometry x="320" y="270" width="80" height="30" as="geometry" />
        </mxCell>
        <mxCell id="eA2jIajvq4H5W07gXCKD-14" value="add customer" style="html=1;dashed=0;whitespace=wrap;shape=mxgraph.dfd.start;strokeColor=#FF8000;" vertex="1" parent="1">
          <mxGeometry x="330" y="320" width="80" height="30" as="geometry" />
        </mxCell>
        <mxCell id="eA2jIajvq4H5W07gXCKD-15" value="Login" style="html=1;dashed=0;whitespace=wrap;shape=mxgraph.dfd.start;strokeColor=#FF8000;" vertex="1" parent="1">
          <mxGeometry x="490" y="50" width="80" height="30" as="geometry" />
        </mxCell>
        <mxCell id="eA2jIajvq4H5W07gXCKD-16" value="Manager" style="text;html=1;align=center;verticalAlign=middle;resizable=0;points=[];autosize=1;strokeColor=none;" vertex="1" parent="1">
          <mxGeometry x="320" y="20" width="60" height="20" as="geometry" />
        </mxCell>
        <mxCell id="eA2jIajvq4H5W07gXCKD-17" value="View user info" style="html=1;dashed=0;whitespace=wrap;shape=mxgraph.dfd.start;strokeColor=#FF8000;" vertex="1" parent="1">
          <mxGeometry x="490" y="170" width="80" height="30" as="geometry" />
        </mxCell>
        <mxCell id="eA2jIajvq4H5W07gXCKD-18" value="view dashboard" style="html=1;dashed=0;whitespace=wrap;shape=mxgraph.dfd.start;strokeColor=#FF8000;" vertex="1" parent="1">
          <mxGeometry x="490" y="110" width="80" height="30" as="geometry" />
        </mxCell>
        <mxCell id="eA2jIajvq4H5W07gXCKD-19" value="update&amp;nbsp; &lt;br&gt;information" style="html=1;dashed=0;whitespace=wrap;shape=mxgraph.dfd.start;strokeColor=#FF8000;" vertex="1" parent="1">
          <mxGeometry x="490" y="220" width="80" height="30" as="geometry" />
        </mxCell>
        <mxCell id="eA2jIajvq4H5W07gXCKD-20" value="Employee" style="text;html=1;align=center;verticalAlign=middle;resizable=0;points=[];autosize=1;strokeColor=none;" vertex="1" parent="1">
          <mxGeometry x="485" y="20" width="70" height="20" as="geometry" />
        </mxCell>
        <mxCell id="eA2jIajvq4H5W07gXCKD-21" value="create manager&lt;br&gt;account" style="html=1;dashed=0;whitespace=wrap;shape=mxgraph.dfd.start;strokeColor=#FF8000;" vertex="1" parent="1">
          <mxGeometry x="630" y="40" width="90" height="40" as="geometry" />
        </mxCell>
        <mxCell id="eA2jIajvq4H5W07gXCKD-22" value="add&amp;nbsp; convention&amp;nbsp;&lt;br&gt;center place" style="html=1;dashed=0;whitespace=wrap;shape=mxgraph.dfd.start;strokeColor=#FF8000;" vertex="1" parent="1">
          <mxGeometry x="670" y="160" width="100" height="40" as="geometry" />
        </mxCell>
        <mxCell id="eA2jIajvq4H5W07gXCKD-23" value="add customer&lt;br&gt;account" style="html=1;dashed=0;whitespace=wrap;shape=mxgraph.dfd.start;strokeColor=#FF8000;" vertex="1" parent="1">
          <mxGeometry x="690" y="100" width="80" height="40" as="geometry" />
        </mxCell>
        <mxCell id="eA2jIajvq4H5W07gXCKD-24" value="add booking" style="html=1;dashed=0;whitespace=wrap;shape=mxgraph.dfd.start;strokeColor=#FF8000;" vertex="1" parent="1">
          <mxGeometry x="750" y="40" width="80" height="30" as="geometry" />
        </mxCell>
        <mxCell id="eA2jIajvq4H5W07gXCKD-25" value="add manager&lt;br&gt;account" style="html=1;dashed=0;whitespace=wrap;shape=mxgraph.dfd.start;strokeColor=#FF8000;" vertex="1" parent="1">
          <mxGeometry x="690" y="230" width="80" height="30" as="geometry" />
        </mxCell>
      </root>
    </mxGraphModel>
  </diagram>
</mxfile>
